<?xml version="1.0" encoding="UTF-8" standalone="no"?>
<!DOCTYPE svg PUBLIC "-//W3C//DTD SVG 1.1//EN"
 "http://www.w3.org/Graphics/SVG/1.1/DTD/svg11.dtd">
<!-- Generated by graphviz version 2.42.3 (20191010.1750)
 -->
<!-- Title: dag Pages: 1 -->
<svg width="412pt" height="548pt"
 viewBox="0.00 0.00 412.05 548.00" xmlns="http://www.w3.org/2000/svg" xmlns:xlink="http://www.w3.org/1999/xlink">
<g id="graph0" class="graph" transform="scale(1 1) rotate(0) translate(4 544)">
<title>dag</title>
<polygon fill="white" stroke="transparent" points="-4,4 -4,-544 408.05,-544 408.05,4 -4,4"/>
<!-- ID0000019 -->
<g id="node1" class="node">
<title>ID0000019</title>
<ellipse fill="#1b9e77" stroke="#000000" cx="160.03" cy="-18" rx="37.73" ry="18"/>
<text text-anchor="middle" x="160.03" y="-13.8" font-family="Times,serif" font-size="14.00">training</text>
</g>
<!-- ID0000010 -->
<g id="node2" class="node">
<title>ID0000010</title>
<ellipse fill="#d95f02" stroke="#000000" cx="251.03" cy="-234" rx="42.55" ry="18"/>
<text text-anchor="middle" x="251.03" y="-229.8" font-family="Times,serif" font-size="14.00">applybpe</text>
</g>
<!-- ID0000017 -->
<g id="node9" class="node">
<title>ID0000017</title>
<ellipse fill="#a6761d" stroke="#000000" cx="253.03" cy="-162" rx="48.79" ry="18"/>
<text text-anchor="middle" x="253.03" y="-157.8" font-family="Times,serif" font-size="14.00">concat&#45;bpe</text>
</g>
<!-- ID0000010&#45;&gt;ID0000017 -->
<g id="edge3" class="edge">
<title>ID0000010&#45;&gt;ID0000017</title>
<path fill="none" stroke="#000000" d="M251.52,-215.7C251.74,-207.98 252.01,-198.71 252.25,-190.11"/>
<polygon fill="#000000" stroke="#000000" points="255.75,-190.2 252.54,-180.1 248.75,-190 255.75,-190.2"/>
</g>
<!-- ID0000014 -->
<g id="node18" class="node">
<title>ID0000014</title>
<ellipse fill="#8dd3c7" stroke="#000000" cx="144.03" cy="-162" rx="42.05" ry="18"/>
<text text-anchor="middle" x="144.03" y="-157.8" font-family="Times,serif" font-size="14.00">getvocab</text>
</g>
<!-- ID0000010&#45;&gt;ID0000014 -->
<g id="edge2" class="edge">
<title>ID0000010&#45;&gt;ID0000014</title>
<path fill="none" stroke="#000000" d="M228.86,-218.5C213.22,-208.27 192.07,-194.43 174.8,-183.13"/>
<polygon fill="#000000" stroke="#000000" points="176.45,-180.03 166.17,-177.49 172.62,-185.89 176.45,-180.03"/>
</g>
<!-- ID0000011 -->
<g id="node19" class="node">
<title>ID0000011</title>
<ellipse fill="#8dd3c7" stroke="#000000" cx="362.03" cy="-162" rx="42.05" ry="18"/>
<text text-anchor="middle" x="362.03" y="-157.8" font-family="Times,serif" font-size="14.00">getvocab</text>
</g>
<!-- ID0000010&#45;&gt;ID0000011 -->
<g id="edge1" class="edge">
<title>ID0000010&#45;&gt;ID0000011</title>
<path fill="none" stroke="#000000" d="M273.76,-218.67C290.22,-208.28 312.67,-194.12 330.81,-182.68"/>
<polygon fill="#000000" stroke="#000000" points="332.73,-185.61 339.33,-177.32 329,-179.69 332.73,-185.61"/>
</g>
<!-- ID0000008 -->
<g id="node3" class="node">
<title>ID0000008</title>
<ellipse fill="#7570b3" stroke="#000000" cx="149.03" cy="-378" rx="40.12" ry="18"/>
<text text-anchor="middle" x="149.03" y="-373.8" font-family="Times,serif" font-size="14.00">tokenize</text>
</g>
<!-- ID0000009 -->
<g id="node4" class="node">
<title>ID0000009</title>
<ellipse fill="#e7298a" stroke="#000000" cx="198.03" cy="-306" rx="40.6" ry="18"/>
<text text-anchor="middle" x="198.03" y="-301.8" font-family="Times,serif" font-size="14.00">learnbpe</text>
</g>
<!-- ID0000008&#45;&gt;ID0000009 -->
<g id="edge4" class="edge">
<title>ID0000008&#45;&gt;ID0000009</title>
<path fill="none" stroke="#000000" d="M160.64,-360.41C166.62,-351.87 174.03,-341.28 180.68,-331.79"/>
<polygon fill="#000000" stroke="#000000" points="183.63,-333.67 186.5,-323.47 177.9,-329.66 183.63,-333.67"/>
</g>
<!-- ID0000009&#45;&gt;ID0000010 -->
<g id="edge5" class="edge">
<title>ID0000009&#45;&gt;ID0000010</title>
<path fill="none" stroke="#000000" d="M210.32,-288.76C216.85,-280.14 225.01,-269.36 232.3,-259.73"/>
<polygon fill="#000000" stroke="#000000" points="235.19,-261.72 238.43,-251.63 229.61,-257.49 235.19,-261.72"/>
</g>
<!-- ID0000012 -->
<g id="node17" class="node">
<title>ID0000012</title>
<ellipse fill="#d95f02" stroke="#000000" cx="147.03" cy="-234" rx="42.55" ry="18"/>
<text text-anchor="middle" x="147.03" y="-229.8" font-family="Times,serif" font-size="14.00">applybpe</text>
</g>
<!-- ID0000009&#45;&gt;ID0000012 -->
<g id="edge6" class="edge">
<title>ID0000009&#45;&gt;ID0000012</title>
<path fill="none" stroke="#000000" d="M186.2,-288.76C179.92,-280.14 172.06,-269.36 165.04,-259.73"/>
<polygon fill="#000000" stroke="#000000" points="167.86,-257.65 159.14,-251.63 162.2,-261.78 167.86,-257.65"/>
</g>
<!-- ID0000004 -->
<g id="node5" class="node">
<title>ID0000004</title>
<ellipse fill="#7570b3" stroke="#000000" cx="247.03" cy="-378" rx="40.12" ry="18"/>
<text text-anchor="middle" x="247.03" y="-373.8" font-family="Times,serif" font-size="14.00">tokenize</text>
</g>
<!-- ID0000004&#45;&gt;ID0000009 -->
<g id="edge7" class="edge">
<title>ID0000004&#45;&gt;ID0000009</title>
<path fill="none" stroke="#000000" d="M235.41,-360.41C229.43,-351.87 222.02,-341.28 215.38,-331.79"/>
<polygon fill="#000000" stroke="#000000" points="218.16,-329.66 209.56,-323.47 212.42,-333.67 218.16,-329.66"/>
</g>
<!-- ID0000005 -->
<g id="node6" class="node">
<title>ID0000005</title>
<ellipse fill="#66a61e" stroke="#000000" cx="84.03" cy="-522" rx="27" ry="18"/>
<text text-anchor="middle" x="84.03" y="-517.8" font-family="Times,serif" font-size="14.00">gzip</text>
</g>
<!-- ID0000007 -->
<g id="node8" class="node">
<title>ID0000007</title>
<ellipse fill="#e6ab02" stroke="#000000" cx="149.03" cy="-450" rx="33.37" ry="18"/>
<text text-anchor="middle" x="149.03" y="-445.8" font-family="Times,serif" font-size="14.00">concat</text>
</g>
<!-- ID0000005&#45;&gt;ID0000007 -->
<g id="edge8" class="edge">
<title>ID0000005&#45;&gt;ID0000007</title>
<path fill="none" stroke="#000000" d="M97.81,-506.15C106.57,-496.72 118.07,-484.33 127.96,-473.69"/>
<polygon fill="#000000" stroke="#000000" points="130.57,-476.02 134.81,-466.31 125.44,-471.25 130.57,-476.02"/>
</g>
<!-- ID0000006 -->
<g id="node7" class="node">
<title>ID0000006</title>
<ellipse fill="#66a61e" stroke="#000000" cx="156.03" cy="-522" rx="27" ry="18"/>
<text text-anchor="middle" x="156.03" y="-517.8" font-family="Times,serif" font-size="14.00">gzip</text>
</g>
<!-- ID0000006&#45;&gt;ID0000007 -->
<g id="edge9" class="edge">
<title>ID0000006&#45;&gt;ID0000007</title>
<path fill="none" stroke="#000000" d="M154.3,-503.7C153.52,-495.98 152.6,-486.71 151.74,-478.11"/>
<polygon fill="#000000" stroke="#000000" points="155.21,-477.71 150.74,-468.1 148.25,-478.4 155.21,-477.71"/>
</g>
<!-- ID0000007&#45;&gt;ID0000008 -->
<g id="edge10" class="edge">
<title>ID0000007&#45;&gt;ID0000008</title>
<path fill="none" stroke="#000000" d="M149.03,-431.7C149.03,-423.98 149.03,-414.71 149.03,-406.11"/>
<polygon fill="#000000" stroke="#000000" points="152.53,-406.1 149.03,-396.1 145.53,-406.1 152.53,-406.1"/>
</g>
<!-- ID0000018 -->
<g id="node15" class="node">
<title>ID0000018</title>
<ellipse fill="#bebada" stroke="#000000" cx="253.03" cy="-90" rx="36.27" ry="18"/>
<text text-anchor="middle" x="253.03" y="-85.8" font-family="Times,serif" font-size="14.00">fasttext</text>
</g>
<!-- ID0000017&#45;&gt;ID0000018 -->
<g id="edge11" class="edge">
<title>ID0000017&#45;&gt;ID0000018</title>
<path fill="none" stroke="#000000" d="M253.03,-143.7C253.03,-135.98 253.03,-126.71 253.03,-118.11"/>
<polygon fill="#000000" stroke="#000000" points="256.53,-118.1 253.03,-108.1 249.53,-118.1 256.53,-118.1"/>
</g>
<!-- ID0000001 -->
<g id="node10" class="node">
<title>ID0000001</title>
<ellipse fill="#66a61e" stroke="#000000" cx="241.03" cy="-522" rx="27" ry="18"/>
<text text-anchor="middle" x="241.03" y="-517.8" font-family="Times,serif" font-size="14.00">gzip</text>
</g>
<!-- ID0000003 -->
<g id="node12" class="node">
<title>ID0000003</title>
<ellipse fill="#e6ab02" stroke="#000000" cx="247.03" cy="-450" rx="33.37" ry="18"/>
<text text-anchor="middle" x="247.03" y="-445.8" font-family="Times,serif" font-size="14.00">concat</text>
</g>
<!-- ID0000001&#45;&gt;ID0000003 -->
<g id="edge12" class="edge">
<title>ID0000001&#45;&gt;ID0000003</title>
<path fill="none" stroke="#000000" d="M242.51,-503.7C243.17,-495.98 243.97,-486.71 244.7,-478.11"/>
<polygon fill="#000000" stroke="#000000" points="248.19,-478.37 245.56,-468.1 241.22,-477.77 248.19,-478.37"/>
</g>
<!-- ID0000002 -->
<g id="node11" class="node">
<title>ID0000002</title>
<ellipse fill="#66a61e" stroke="#000000" cx="313.03" cy="-522" rx="27" ry="18"/>
<text text-anchor="middle" x="313.03" y="-517.8" font-family="Times,serif" font-size="14.00">gzip</text>
</g>
<!-- ID0000002&#45;&gt;ID0000003 -->
<g id="edge13" class="edge">
<title>ID0000002&#45;&gt;ID0000003</title>
<path fill="none" stroke="#000000" d="M299.03,-506.15C290.14,-496.72 278.46,-484.33 268.42,-473.69"/>
<polygon fill="#000000" stroke="#000000" points="270.87,-471.18 261.46,-466.31 265.77,-475.98 270.87,-471.18"/>
</g>
<!-- ID0000003&#45;&gt;ID0000004 -->
<g id="edge14" class="edge">
<title>ID0000003&#45;&gt;ID0000004</title>
<path fill="none" stroke="#000000" d="M247.03,-431.7C247.03,-423.98 247.03,-414.71 247.03,-406.11"/>
<polygon fill="#000000" stroke="#000000" points="250.53,-406.1 247.03,-396.1 243.53,-406.1 250.53,-406.1"/>
</g>
<!-- ID0000016 -->
<g id="node13" class="node">
<title>ID0000016</title>
<ellipse fill="#666666" stroke="#000000" cx="160.03" cy="-90" rx="38.67" ry="18"/>
<text text-anchor="middle" x="160.03" y="-85.8" font-family="Times,serif" font-size="14.00">binarize</text>
</g>
<!-- ID0000016&#45;&gt;ID0000019 -->
<g id="edge15" class="edge">
<title>ID0000016&#45;&gt;ID0000019</title>
<path fill="none" stroke="#000000" d="M160.03,-71.7C160.03,-63.98 160.03,-54.71 160.03,-46.11"/>
<polygon fill="#000000" stroke="#000000" points="163.53,-46.1 160.03,-36.1 156.53,-46.1 163.53,-46.1"/>
</g>
<!-- ID0000013 -->
<g id="node14" class="node">
<title>ID0000013</title>
<ellipse fill="#8dd3c7" stroke="#000000" cx="42.03" cy="-162" rx="42.05" ry="18"/>
<text text-anchor="middle" x="42.03" y="-157.8" font-family="Times,serif" font-size="14.00">getvocab</text>
</g>
<!-- ID0000018&#45;&gt;ID0000019 -->
<g id="edge16" class="edge">
<title>ID0000018&#45;&gt;ID0000019</title>
<path fill="none" stroke="#000000" d="M233.76,-74.5C220.41,-64.45 202.45,-50.93 187.6,-39.75"/>
<polygon fill="#000000" stroke="#000000" points="189.37,-36.7 179.27,-33.49 185.16,-42.3 189.37,-36.7"/>
</g>
<!-- ID0000015 -->
<g id="node16" class="node">
<title>ID0000015</title>
<ellipse fill="#666666" stroke="#000000" cx="65.03" cy="-90" rx="38.67" ry="18"/>
<text text-anchor="middle" x="65.03" y="-85.8" font-family="Times,serif" font-size="14.00">binarize</text>
</g>
<!-- ID0000015&#45;&gt;ID0000019 -->
<g id="edge17" class="edge">
<title>ID0000015&#45;&gt;ID0000019</title>
<path fill="none" stroke="#000000" d="M84.71,-74.5C98.47,-64.36 117.03,-50.68 132.28,-39.44"/>
<polygon fill="#000000" stroke="#000000" points="134.39,-42.24 140.37,-33.49 130.24,-36.6 134.39,-42.24"/>
</g>
<!-- ID0000012&#45;&gt;ID0000017 -->
<g id="edge20" class="edge">
<title>ID0000012&#45;&gt;ID0000017</title>
<path fill="none" stroke="#000000" d="M168.99,-218.5C184.27,-208.4 204.88,-194.8 221.86,-183.58"/>
<polygon fill="#000000" stroke="#000000" points="223.94,-186.4 230.36,-177.97 220.09,-180.56 223.94,-186.4"/>
</g>
<!-- ID0000012&#45;&gt;ID0000013 -->
<g id="edge18" class="edge">
<title>ID0000012&#45;&gt;ID0000013</title>
<path fill="none" stroke="#000000" d="M125.27,-218.5C109.92,-208.27 89.17,-194.43 72.22,-183.13"/>
<polygon fill="#000000" stroke="#000000" points="74.02,-180.12 63.75,-177.49 70.13,-185.94 74.02,-180.12"/>
</g>
<!-- ID0000012&#45;&gt;ID0000014 -->
<g id="edge19" class="edge">
<title>ID0000012&#45;&gt;ID0000014</title>
<path fill="none" stroke="#000000" d="M146.28,-215.7C145.95,-207.98 145.56,-198.71 145.19,-190.11"/>
<polygon fill="#000000" stroke="#000000" points="148.68,-189.95 144.76,-180.1 141.69,-190.25 148.68,-189.95"/>
</g>
<!-- ID0000014&#45;&gt;ID0000016 -->
<g id="edge22" class="edge">
<title>ID0000014&#45;&gt;ID0000016</title>
<path fill="none" stroke="#000000" d="M147.9,-144.05C149.68,-136.26 151.84,-126.82 153.84,-118.08"/>
<polygon fill="#000000" stroke="#000000" points="157.26,-118.8 156.08,-108.28 150.44,-117.24 157.26,-118.8"/>
</g>
<!-- ID0000014&#45;&gt;ID0000015 -->
<g id="edge21" class="edge">
<title>ID0000014&#45;&gt;ID0000015</title>
<path fill="none" stroke="#000000" d="M126.49,-145.46C115.78,-135.97 101.91,-123.68 90.06,-113.18"/>
<polygon fill="#000000" stroke="#000000" points="92.04,-110.26 82.24,-106.25 87.4,-115.5 92.04,-110.26"/>
</g>
</g>
</svg>
