<?xml version="1.0" encoding="UTF-8" standalone="no"?>
<!DOCTYPE svg PUBLIC "-//W3C//DTD SVG 1.1//EN"
 "http://www.w3.org/Graphics/SVG/1.1/DTD/svg11.dtd">
<!-- Generated by graphviz version 2.42.3 (20191010.1750)
 -->
<!-- Title: dag Pages: 1 -->
<svg width="566pt" height="548pt"
 viewBox="0.00 0.00 566.00 548.00" xmlns="http://www.w3.org/2000/svg" xmlns:xlink="http://www.w3.org/1999/xlink">
<g id="graph0" class="graph" transform="scale(1 1) rotate(0) translate(4 544)">
<title>dag</title>
<polygon fill="white" stroke="transparent" points="-4,4 -4,-544 562,-544 562,4 -4,4"/>
<!-- ID0000019 -->
<g id="node1" class="node">
<title>ID0000019</title>
<ellipse fill="#1b9e77" stroke="#000000" cx="212" cy="-90" rx="38.67" ry="18"/>
<text text-anchor="middle" x="212" y="-85.8" font-family="Times,serif" font-size="14.00">binarize</text>
</g>
<!-- ID0000023 -->
<g id="node21" class="node">
<title>ID0000023</title>
<ellipse fill="#8dd3c7" stroke="#000000" cx="212" cy="-18" rx="37.73" ry="18"/>
<text text-anchor="middle" x="212" y="-13.8" font-family="Times,serif" font-size="14.00">training</text>
</g>
<!-- ID0000019&#45;&gt;ID0000023 -->
<g id="edge1" class="edge">
<title>ID0000019&#45;&gt;ID0000023</title>
<path fill="none" stroke="#000000" d="M212,-71.7C212,-63.98 212,-54.71 212,-46.11"/>
<polygon fill="#000000" stroke="#000000" points="215.5,-46.1 212,-36.1 208.5,-46.1 215.5,-46.1"/>
</g>
<!-- ID0000018 -->
<g id="node2" class="node">
<title>ID0000018</title>
<ellipse fill="#d95f02" stroke="#000000" cx="196" cy="-162" rx="42.05" ry="18"/>
<text text-anchor="middle" x="196" y="-157.8" font-family="Times,serif" font-size="14.00">getvocab</text>
</g>
<!-- ID0000018&#45;&gt;ID0000019 -->
<g id="edge2" class="edge">
<title>ID0000018&#45;&gt;ID0000019</title>
<path fill="none" stroke="#000000" d="M199.87,-144.05C201.65,-136.26 203.81,-126.82 205.81,-118.08"/>
<polygon fill="#000000" stroke="#000000" points="209.24,-118.8 208.05,-108.28 202.41,-117.24 209.24,-118.8"/>
</g>
<!-- ID0000020 -->
<g id="node22" class="node">
<title>ID0000020</title>
<ellipse fill="#1b9e77" stroke="#000000" cx="117" cy="-90" rx="38.67" ry="18"/>
<text text-anchor="middle" x="117" y="-85.8" font-family="Times,serif" font-size="14.00">binarize</text>
</g>
<!-- ID0000018&#45;&gt;ID0000020 -->
<g id="edge3" class="edge">
<title>ID0000018&#45;&gt;ID0000020</title>
<path fill="none" stroke="#000000" d="M178.47,-145.46C167.76,-135.97 153.89,-123.68 142.03,-113.18"/>
<polygon fill="#000000" stroke="#000000" points="144.02,-110.26 134.21,-106.25 139.38,-115.5 144.02,-110.26"/>
</g>
<!-- ID0000013 -->
<g id="node3" class="node">
<title>ID0000013</title>
<ellipse fill="#7570b3" stroke="#000000" cx="250" cy="-306" rx="40.6" ry="18"/>
<text text-anchor="middle" x="250" y="-301.8" font-family="Times,serif" font-size="14.00">learnbpe</text>
</g>
<!-- ID0000016 -->
<g id="node8" class="node">
<title>ID0000016</title>
<ellipse fill="#a6761d" stroke="#000000" cx="303" cy="-234" rx="42.55" ry="18"/>
<text text-anchor="middle" x="303" y="-229.8" font-family="Times,serif" font-size="14.00">applybpe</text>
</g>
<!-- ID0000013&#45;&gt;ID0000016 -->
<g id="edge5" class="edge">
<title>ID0000013&#45;&gt;ID0000016</title>
<path fill="none" stroke="#000000" d="M262.29,-288.76C268.82,-280.14 276.98,-269.36 284.28,-259.73"/>
<polygon fill="#000000" stroke="#000000" points="287.16,-261.72 290.41,-251.63 281.58,-257.49 287.16,-261.72"/>
</g>
<!-- ID0000014 -->
<g id="node10" class="node">
<title>ID0000014</title>
<ellipse fill="#a6761d" stroke="#000000" cx="199" cy="-234" rx="42.55" ry="18"/>
<text text-anchor="middle" x="199" y="-229.8" font-family="Times,serif" font-size="14.00">applybpe</text>
</g>
<!-- ID0000013&#45;&gt;ID0000014 -->
<g id="edge4" class="edge">
<title>ID0000013&#45;&gt;ID0000014</title>
<path fill="none" stroke="#000000" d="M238.17,-288.76C231.89,-280.14 224.04,-269.36 217.02,-259.73"/>
<polygon fill="#000000" stroke="#000000" points="219.84,-257.65 211.12,-251.63 214.18,-261.78 219.84,-257.65"/>
</g>
<!-- ID0000012 -->
<g id="node4" class="node">
<title>ID0000012</title>
<ellipse fill="#e7298a" stroke="#000000" cx="201" cy="-378" rx="40.12" ry="18"/>
<text text-anchor="middle" x="201" y="-373.8" font-family="Times,serif" font-size="14.00">tokenize</text>
</g>
<!-- ID0000012&#45;&gt;ID0000013 -->
<g id="edge6" class="edge">
<title>ID0000012&#45;&gt;ID0000013</title>
<path fill="none" stroke="#000000" d="M212.61,-360.41C218.59,-351.87 226.01,-341.28 232.65,-331.79"/>
<polygon fill="#000000" stroke="#000000" points="235.6,-333.67 238.47,-323.47 229.87,-329.66 235.6,-333.67"/>
</g>
<!-- ID0000011 -->
<g id="node5" class="node">
<title>ID0000011</title>
<ellipse fill="#66a61e" stroke="#000000" cx="171" cy="-450" rx="33.37" ry="18"/>
<text text-anchor="middle" x="171" y="-445.8" font-family="Times,serif" font-size="14.00">concat</text>
</g>
<!-- ID0000011&#45;&gt;ID0000012 -->
<g id="edge7" class="edge">
<title>ID0000011&#45;&gt;ID0000012</title>
<path fill="none" stroke="#000000" d="M178.11,-432.41C181.57,-424.34 185.82,-414.43 189.71,-405.35"/>
<polygon fill="#000000" stroke="#000000" points="193.01,-406.53 193.73,-395.96 186.58,-403.77 193.01,-406.53"/>
</g>
<!-- ID0000010 -->
<g id="node6" class="node">
<title>ID0000010</title>
<ellipse fill="#e6ab02" stroke="#000000" cx="27" cy="-522" rx="27" ry="18"/>
<text text-anchor="middle" x="27" y="-517.8" font-family="Times,serif" font-size="14.00">gzip</text>
</g>
<!-- ID0000010&#45;&gt;ID0000011 -->
<g id="edge8" class="edge">
<title>ID0000010&#45;&gt;ID0000011</title>
<path fill="none" stroke="#000000" d="M48.25,-510.67C71.76,-499.24 109.97,-480.67 137.52,-467.28"/>
<polygon fill="#000000" stroke="#000000" points="139.31,-470.3 146.78,-462.78 136.25,-464 139.31,-470.3"/>
</g>
<!-- ID0000017 -->
<g id="node7" class="node">
<title>ID0000017</title>
<ellipse fill="#d95f02" stroke="#000000" cx="414" cy="-162" rx="42.05" ry="18"/>
<text text-anchor="middle" x="414" y="-157.8" font-family="Times,serif" font-size="14.00">getvocab</text>
</g>
<!-- ID0000016&#45;&gt;ID0000018 -->
<g id="edge10" class="edge">
<title>ID0000016&#45;&gt;ID0000018</title>
<path fill="none" stroke="#000000" d="M280.83,-218.5C265.19,-208.27 244.04,-194.43 226.77,-183.13"/>
<polygon fill="#000000" stroke="#000000" points="228.43,-180.03 218.14,-177.49 224.59,-185.89 228.43,-180.03"/>
</g>
<!-- ID0000016&#45;&gt;ID0000017 -->
<g id="edge9" class="edge">
<title>ID0000016&#45;&gt;ID0000017</title>
<path fill="none" stroke="#000000" d="M325.73,-218.67C342.19,-208.28 364.64,-194.12 382.79,-182.68"/>
<polygon fill="#000000" stroke="#000000" points="384.71,-185.61 391.3,-177.32 380.97,-179.69 384.71,-185.61"/>
</g>
<!-- ID0000021 -->
<g id="node23" class="node">
<title>ID0000021</title>
<ellipse fill="#bebada" stroke="#000000" cx="305" cy="-162" rx="48.79" ry="18"/>
<text text-anchor="middle" x="305" y="-157.8" font-family="Times,serif" font-size="14.00">concat&#45;bpe</text>
</g>
<!-- ID0000016&#45;&gt;ID0000021 -->
<g id="edge11" class="edge">
<title>ID0000016&#45;&gt;ID0000021</title>
<path fill="none" stroke="#000000" d="M303.49,-215.7C303.71,-207.98 303.98,-198.71 304.23,-190.11"/>
<polygon fill="#000000" stroke="#000000" points="307.72,-190.2 304.51,-180.1 300.73,-190 307.72,-190.2"/>
</g>
<!-- ID0000015 -->
<g id="node9" class="node">
<title>ID0000015</title>
<ellipse fill="#d95f02" stroke="#000000" cx="94" cy="-162" rx="42.05" ry="18"/>
<text text-anchor="middle" x="94" y="-157.8" font-family="Times,serif" font-size="14.00">getvocab</text>
</g>
<!-- ID0000014&#45;&gt;ID0000018 -->
<g id="edge13" class="edge">
<title>ID0000014&#45;&gt;ID0000018</title>
<path fill="none" stroke="#000000" d="M198.26,-215.7C197.93,-207.98 197.53,-198.71 197.16,-190.11"/>
<polygon fill="#000000" stroke="#000000" points="200.66,-189.95 196.73,-180.1 193.66,-190.25 200.66,-189.95"/>
</g>
<!-- ID0000014&#45;&gt;ID0000015 -->
<g id="edge12" class="edge">
<title>ID0000014&#45;&gt;ID0000015</title>
<path fill="none" stroke="#000000" d="M177.24,-218.5C161.9,-208.27 141.14,-194.43 124.19,-183.13"/>
<polygon fill="#000000" stroke="#000000" points="125.99,-180.12 115.73,-177.49 122.11,-185.94 125.99,-180.12"/>
</g>
<!-- ID0000014&#45;&gt;ID0000021 -->
<g id="edge14" class="edge">
<title>ID0000014&#45;&gt;ID0000021</title>
<path fill="none" stroke="#000000" d="M220.96,-218.5C236.25,-208.4 256.85,-194.8 273.83,-183.58"/>
<polygon fill="#000000" stroke="#000000" points="275.92,-186.4 282.33,-177.97 272.06,-180.56 275.92,-186.4"/>
</g>
<!-- ID0000008 -->
<g id="node11" class="node">
<title>ID0000008</title>
<ellipse fill="#e6ab02" stroke="#000000" cx="99" cy="-522" rx="27" ry="18"/>
<text text-anchor="middle" x="99" y="-517.8" font-family="Times,serif" font-size="14.00">gzip</text>
</g>
<!-- ID0000008&#45;&gt;ID0000011 -->
<g id="edge15" class="edge">
<title>ID0000008&#45;&gt;ID0000011</title>
<path fill="none" stroke="#000000" d="M113.57,-506.83C123.45,-497.23 136.72,-484.33 148.02,-473.34"/>
<polygon fill="#000000" stroke="#000000" points="150.72,-475.59 155.45,-466.11 145.84,-470.57 150.72,-475.59"/>
</g>
<!-- ID0000009 -->
<g id="node12" class="node">
<title>ID0000009</title>
<ellipse fill="#e6ab02" stroke="#000000" cx="171" cy="-522" rx="27" ry="18"/>
<text text-anchor="middle" x="171" y="-517.8" font-family="Times,serif" font-size="14.00">gzip</text>
</g>
<!-- ID0000009&#45;&gt;ID0000011 -->
<g id="edge16" class="edge">
<title>ID0000009&#45;&gt;ID0000011</title>
<path fill="none" stroke="#000000" d="M171,-503.7C171,-495.98 171,-486.71 171,-478.11"/>
<polygon fill="#000000" stroke="#000000" points="174.5,-478.1 171,-468.1 167.5,-478.1 174.5,-478.1"/>
</g>
<!-- ID0000004 -->
<g id="node13" class="node">
<title>ID0000004</title>
<ellipse fill="#e6ab02" stroke="#000000" cx="315" cy="-522" rx="27" ry="18"/>
<text text-anchor="middle" x="315" y="-517.8" font-family="Times,serif" font-size="14.00">gzip</text>
</g>
<!-- ID0000005 -->
<g id="node14" class="node">
<title>ID0000005</title>
<ellipse fill="#66a61e" stroke="#000000" cx="387" cy="-450" rx="33.37" ry="18"/>
<text text-anchor="middle" x="387" y="-445.8" font-family="Times,serif" font-size="14.00">concat</text>
</g>
<!-- ID0000004&#45;&gt;ID0000005 -->
<g id="edge17" class="edge">
<title>ID0000004&#45;&gt;ID0000005</title>
<path fill="none" stroke="#000000" d="M329.57,-506.83C339.45,-497.23 352.72,-484.33 364.02,-473.34"/>
<polygon fill="#000000" stroke="#000000" points="366.72,-475.59 371.45,-466.11 361.84,-470.57 366.72,-475.59"/>
</g>
<!-- ID0000006 -->
<g id="node15" class="node">
<title>ID0000006</title>
<ellipse fill="#e7298a" stroke="#000000" cx="358" cy="-378" rx="40.12" ry="18"/>
<text text-anchor="middle" x="358" y="-373.8" font-family="Times,serif" font-size="14.00">tokenize</text>
</g>
<!-- ID0000005&#45;&gt;ID0000006 -->
<g id="edge18" class="edge">
<title>ID0000005&#45;&gt;ID0000006</title>
<path fill="none" stroke="#000000" d="M379.98,-432.05C376.63,-423.97 372.55,-414.12 368.82,-405.11"/>
<polygon fill="#000000" stroke="#000000" points="372.02,-403.69 364.96,-395.79 365.55,-406.37 372.02,-403.69"/>
</g>
<!-- ID0000006&#45;&gt;ID0000013 -->
<g id="edge19" class="edge">
<title>ID0000006&#45;&gt;ID0000013</title>
<path fill="none" stroke="#000000" d="M336.14,-362.83C320.29,-352.56 298.63,-338.52 281,-327.09"/>
<polygon fill="#000000" stroke="#000000" points="282.49,-323.89 272.19,-321.38 278.68,-329.76 282.49,-323.89"/>
</g>
<!-- ID0000007 -->
<g id="node16" class="node">
<title>ID0000007</title>
<ellipse fill="#e6ab02" stroke="#000000" cx="243" cy="-522" rx="27" ry="18"/>
<text text-anchor="middle" x="243" y="-517.8" font-family="Times,serif" font-size="14.00">gzip</text>
</g>
<!-- ID0000007&#45;&gt;ID0000011 -->
<g id="edge20" class="edge">
<title>ID0000007&#45;&gt;ID0000011</title>
<path fill="none" stroke="#000000" d="M228.43,-506.83C218.55,-497.23 205.28,-484.33 193.98,-473.34"/>
<polygon fill="#000000" stroke="#000000" points="196.16,-470.57 186.55,-466.11 191.28,-475.59 196.16,-470.57"/>
</g>
<!-- ID0000001 -->
<g id="node17" class="node">
<title>ID0000001</title>
<ellipse fill="#e6ab02" stroke="#000000" cx="387" cy="-522" rx="27" ry="18"/>
<text text-anchor="middle" x="387" y="-517.8" font-family="Times,serif" font-size="14.00">gzip</text>
</g>
<!-- ID0000001&#45;&gt;ID0000005 -->
<g id="edge21" class="edge">
<title>ID0000001&#45;&gt;ID0000005</title>
<path fill="none" stroke="#000000" d="M387,-503.7C387,-495.98 387,-486.71 387,-478.11"/>
<polygon fill="#000000" stroke="#000000" points="390.5,-478.1 387,-468.1 383.5,-478.1 390.5,-478.1"/>
</g>
<!-- ID0000002 -->
<g id="node18" class="node">
<title>ID0000002</title>
<ellipse fill="#e6ab02" stroke="#000000" cx="459" cy="-522" rx="27" ry="18"/>
<text text-anchor="middle" x="459" y="-517.8" font-family="Times,serif" font-size="14.00">gzip</text>
</g>
<!-- ID0000002&#45;&gt;ID0000005 -->
<g id="edge22" class="edge">
<title>ID0000002&#45;&gt;ID0000005</title>
<path fill="none" stroke="#000000" d="M444.43,-506.83C434.55,-497.23 421.28,-484.33 409.98,-473.34"/>
<polygon fill="#000000" stroke="#000000" points="412.16,-470.57 402.55,-466.11 407.28,-475.59 412.16,-470.57"/>
</g>
<!-- ID0000003 -->
<g id="node19" class="node">
<title>ID0000003</title>
<ellipse fill="#e6ab02" stroke="#000000" cx="531" cy="-522" rx="27" ry="18"/>
<text text-anchor="middle" x="531" y="-517.8" font-family="Times,serif" font-size="14.00">gzip</text>
</g>
<!-- ID0000003&#45;&gt;ID0000005 -->
<g id="edge23" class="edge">
<title>ID0000003&#45;&gt;ID0000005</title>
<path fill="none" stroke="#000000" d="M509.75,-510.67C486.24,-499.24 448.03,-480.67 420.48,-467.28"/>
<polygon fill="#000000" stroke="#000000" points="421.75,-464 411.22,-462.78 418.69,-470.3 421.75,-464"/>
</g>
<!-- ID0000022 -->
<g id="node20" class="node">
<title>ID0000022</title>
<ellipse fill="#666666" stroke="#000000" cx="305" cy="-90" rx="36.27" ry="18"/>
<text text-anchor="middle" x="305" y="-85.8" font-family="Times,serif" font-size="14.00">fasttext</text>
</g>
<!-- ID0000022&#45;&gt;ID0000023 -->
<g id="edge24" class="edge">
<title>ID0000022&#45;&gt;ID0000023</title>
<path fill="none" stroke="#000000" d="M285.73,-74.5C272.39,-64.45 254.43,-50.93 239.57,-39.75"/>
<polygon fill="#000000" stroke="#000000" points="241.34,-36.7 231.24,-33.49 237.13,-42.3 241.34,-36.7"/>
</g>
<!-- ID0000020&#45;&gt;ID0000023 -->
<g id="edge25" class="edge">
<title>ID0000020&#45;&gt;ID0000023</title>
<path fill="none" stroke="#000000" d="M136.68,-74.5C150.44,-64.36 169,-50.68 184.26,-39.44"/>
<polygon fill="#000000" stroke="#000000" points="186.37,-42.24 192.34,-33.49 182.21,-36.6 186.37,-42.24"/>
</g>
<!-- ID0000021&#45;&gt;ID0000022 -->
<g id="edge26" class="edge">
<title>ID0000021&#45;&gt;ID0000022</title>
<path fill="none" stroke="#000000" d="M305,-143.7C305,-135.98 305,-126.71 305,-118.11"/>
<polygon fill="#000000" stroke="#000000" points="308.5,-118.1 305,-108.1 301.5,-118.1 308.5,-118.1"/>
</g>
</g>
</svg>
