<?xml version="1.0" encoding="UTF-8" standalone="no"?>
<!DOCTYPE svg PUBLIC "-//W3C//DTD SVG 1.1//EN"
 "http://www.w3.org/Graphics/SVG/1.1/DTD/svg11.dtd">
<!-- Generated by graphviz version 2.44.0 (20200408.0750)
 -->
<!-- Title: dag Pages: 1 -->
<svg width="1105pt" height="620pt"
 viewBox="0.00 0.00 1104.64 620.00" xmlns="http://www.w3.org/2000/svg" xmlns:xlink="http://www.w3.org/1999/xlink">
<g id="graph0" class="graph" transform="scale(1 1) rotate(0) translate(4 616)">
<title>dag</title>
<polygon fill="white" stroke="transparent" points="-4,4 -4,-616 1100.64,-616 1100.64,4 -4,4"/>
<!-- ID0000019 -->
<g id="node1" class="node">
<title>ID0000019</title>
<ellipse fill="#1b9e77" stroke="#000000" cx="565" cy="-234" rx="78.79" ry="18"/>
<text text-anchor="middle" x="565" y="-230.3" font-family="Times,serif" font-size="14.00">tokenize&#45;validation</text>
</g>
<!-- ID0000023 -->
<g id="node28" class="node">
<title>ID0000023</title>
<ellipse fill="#d9d9d9" stroke="#000000" cx="532" cy="-162" rx="57.69" ry="18"/>
<text text-anchor="middle" x="532" y="-158.3" font-family="Times,serif" font-size="14.00">applybpe&#45;test</text>
</g>
<!-- ID0000019&#45;&gt;ID0000023 -->
<g id="edge1" class="edge">
<title>ID0000019&#45;&gt;ID0000023</title>
<path fill="none" stroke="#000000" d="M557.01,-216.05C553.26,-208.09 548.69,-198.41 544.5,-189.51"/>
<polygon fill="#000000" stroke="#000000" points="547.57,-187.83 540.14,-180.28 541.24,-190.81 547.57,-187.83"/>
</g>
<!-- ID0000018 -->
<g id="node2" class="node">
<title>ID0000018</title>
<ellipse fill="#1b9e77" stroke="#000000" cx="287" cy="-234" rx="78.79" ry="18"/>
<text text-anchor="middle" x="287" y="-230.3" font-family="Times,serif" font-size="14.00">tokenize&#45;validation</text>
</g>
<!-- ID0000022 -->
<g id="node27" class="node">
<title>ID0000022</title>
<ellipse fill="#fccde5" stroke="#000000" cx="392" cy="-162" rx="63.89" ry="18"/>
<text text-anchor="middle" x="392" y="-158.3" font-family="Times,serif" font-size="14.00">applybpe&#45;valid</text>
</g>
<!-- ID0000018&#45;&gt;ID0000022 -->
<g id="edge2" class="edge">
<title>ID0000018&#45;&gt;ID0000022</title>
<path fill="none" stroke="#000000" d="M311.35,-216.76C325.77,-207.15 344.2,-194.87 359.81,-184.46"/>
<polygon fill="#000000" stroke="#000000" points="361.76,-187.37 368.14,-178.91 357.88,-181.54 361.76,-187.37"/>
</g>
<!-- ID0000013 -->
<g id="node3" class="node">
<title>ID0000013</title>
<ellipse fill="#d95f02" stroke="#000000" cx="879" cy="-234" rx="42.49" ry="18"/>
<text text-anchor="middle" x="879" y="-230.3" font-family="Times,serif" font-size="14.00">getvocab</text>
</g>
<!-- ID0000024 -->
<g id="node25" class="node">
<title>ID0000024</title>
<ellipse fill="#fccde5" stroke="#000000" cx="879" cy="-162" rx="63.89" ry="18"/>
<text text-anchor="middle" x="879" y="-158.3" font-family="Times,serif" font-size="14.00">applybpe&#45;valid</text>
</g>
<!-- ID0000013&#45;&gt;ID0000024 -->
<g id="edge3" class="edge">
<title>ID0000013&#45;&gt;ID0000024</title>
<path fill="none" stroke="#000000" d="M879,-215.7C879,-207.98 879,-198.71 879,-190.11"/>
<polygon fill="#000000" stroke="#000000" points="882.5,-190.1 879,-180.1 875.5,-190.1 882.5,-190.1"/>
</g>
<!-- ID0000025 -->
<g id="node26" class="node">
<title>ID0000025</title>
<ellipse fill="#d9d9d9" stroke="#000000" cx="739" cy="-162" rx="57.69" ry="18"/>
<text text-anchor="middle" x="739" y="-158.3" font-family="Times,serif" font-size="14.00">applybpe&#45;test</text>
</g>
<!-- ID0000013&#45;&gt;ID0000025 -->
<g id="edge4" class="edge">
<title>ID0000013&#45;&gt;ID0000025</title>
<path fill="none" stroke="#000000" d="M852.67,-219.83C831.41,-209.2 801.21,-194.1 777.28,-182.14"/>
<polygon fill="#000000" stroke="#000000" points="778.62,-178.9 768.11,-177.56 775.49,-185.16 778.62,-178.9"/>
</g>
<!-- ID0000012 -->
<g id="node4" class="node">
<title>ID0000012</title>
<ellipse fill="#7570b3" stroke="#000000" cx="193" cy="-306" rx="42.79" ry="18"/>
<text text-anchor="middle" x="193" y="-302.3" font-family="Times,serif" font-size="14.00">applybpe</text>
</g>
<!-- ID0000012&#45;&gt;ID0000013 -->
<g id="edge5" class="edge">
<title>ID0000012&#45;&gt;ID0000013</title>
<path fill="none" stroke="#000000" d="M235.86,-304.93C338.96,-303.99 608.56,-297.06 828,-252 831.44,-251.29 834.97,-250.43 838.49,-249.46"/>
<polygon fill="#000000" stroke="#000000" points="839.72,-252.75 848.31,-246.54 837.72,-246.04 839.72,-252.75"/>
</g>
<!-- ID0000014 -->
<g id="node10" class="node">
<title>ID0000014</title>
<ellipse fill="#e6ab02" stroke="#000000" cx="256" cy="-162" rx="53.89" ry="18"/>
<text text-anchor="middle" x="256" y="-158.3" font-family="Times,serif" font-size="14.00">getvocab&#45;all</text>
</g>
<!-- ID0000012&#45;&gt;ID0000014 -->
<g id="edge6" class="edge">
<title>ID0000012&#45;&gt;ID0000014</title>
<path fill="none" stroke="#000000" d="M190.57,-288C188.7,-269.37 188.01,-239.07 199,-216 204.78,-203.87 214.66,-193.17 224.6,-184.62"/>
<polygon fill="#000000" stroke="#000000" points="226.92,-187.24 232.5,-178.23 222.52,-181.79 226.92,-187.24"/>
</g>
<!-- ID0000030 -->
<g id="node12" class="node">
<title>ID0000030</title>
<ellipse fill="#666666" stroke="#000000" cx="103" cy="-234" rx="49.29" ry="18"/>
<text text-anchor="middle" x="103" y="-230.3" font-family="Times,serif" font-size="14.00">concat&#45;bpe</text>
</g>
<!-- ID0000012&#45;&gt;ID0000030 -->
<g id="edge7" class="edge">
<title>ID0000012&#45;&gt;ID0000030</title>
<path fill="none" stroke="#000000" d="M173.47,-289.81C161.14,-280.22 145.01,-267.67 131.29,-257"/>
<polygon fill="#000000" stroke="#000000" points="133.16,-254.02 123.11,-250.64 128.86,-259.55 133.16,-254.02"/>
</g>
<!-- ID0000011 -->
<g id="node5" class="node">
<title>ID0000011</title>
<ellipse fill="#d95f02" stroke="#000000" cx="426" cy="-234" rx="42.49" ry="18"/>
<text text-anchor="middle" x="426" y="-230.3" font-family="Times,serif" font-size="14.00">getvocab</text>
</g>
<!-- ID0000011&#45;&gt;ID0000022 -->
<g id="edge8" class="edge">
<title>ID0000011&#45;&gt;ID0000022</title>
<path fill="none" stroke="#000000" d="M417.77,-216.05C413.9,-208.09 409.2,-198.41 404.88,-189.51"/>
<polygon fill="#000000" stroke="#000000" points="407.91,-187.74 400.39,-180.28 401.61,-190.8 407.91,-187.74"/>
</g>
<!-- ID0000011&#45;&gt;ID0000023 -->
<g id="edge9" class="edge">
<title>ID0000011&#45;&gt;ID0000023</title>
<path fill="none" stroke="#000000" d="M447.96,-218.5C462.94,-208.61 483.02,-195.35 499.79,-184.27"/>
<polygon fill="#000000" stroke="#000000" points="501.81,-187.13 508.22,-178.7 497.95,-181.29 501.81,-187.13"/>
</g>
<!-- ID0000010 -->
<g id="node6" class="node">
<title>ID0000010</title>
<ellipse fill="#7570b3" stroke="#000000" cx="89" cy="-306" rx="42.79" ry="18"/>
<text text-anchor="middle" x="89" y="-302.3" font-family="Times,serif" font-size="14.00">applybpe</text>
</g>
<!-- ID0000010&#45;&gt;ID0000011 -->
<g id="edge10" class="edge">
<title>ID0000010&#45;&gt;ID0000011</title>
<path fill="none" stroke="#000000" d="M120.67,-293.74C127.32,-291.63 134.35,-289.59 141,-288 243.35,-263.57 272.72,-276.73 375,-252 378.37,-251.19 381.83,-250.25 385.29,-249.25"/>
<polygon fill="#000000" stroke="#000000" points="386.43,-252.56 394.96,-246.28 384.37,-245.87 386.43,-252.56"/>
</g>
<!-- ID0000010&#45;&gt;ID0000014 -->
<g id="edge11" class="edge">
<title>ID0000010&#45;&gt;ID0000014</title>
<path fill="none" stroke="#000000" d="M71.34,-289.44C52.3,-270.77 26.98,-239.11 45,-216 54.66,-203.61 140.89,-184.94 200.08,-173.38"/>
<polygon fill="#000000" stroke="#000000" points="200.9,-176.79 210.06,-171.45 199.57,-169.92 200.9,-176.79"/>
</g>
<!-- ID0000010&#45;&gt;ID0000030 -->
<g id="edge12" class="edge">
<title>ID0000010&#45;&gt;ID0000030</title>
<path fill="none" stroke="#000000" d="M92.39,-288.05C93.93,-280.35 95.79,-271.03 97.53,-262.36"/>
<polygon fill="#000000" stroke="#000000" points="101.02,-262.77 99.54,-252.28 94.15,-261.39 101.02,-262.77"/>
</g>
<!-- ID0000017 -->
<g id="node7" class="node">
<title>ID0000017</title>
<ellipse fill="#e7298a" stroke="#000000" cx="652" cy="-306" rx="27" ry="18"/>
<text text-anchor="middle" x="652" y="-302.3" font-family="Times,serif" font-size="14.00">gzip</text>
</g>
<!-- ID0000017&#45;&gt;ID0000019 -->
<g id="edge14" class="edge">
<title>ID0000017&#45;&gt;ID0000019</title>
<path fill="none" stroke="#000000" d="M635.23,-291.5C623.34,-281.94 607.1,-268.88 593.24,-257.72"/>
<polygon fill="#000000" stroke="#000000" points="595.38,-254.95 585.4,-251.41 590.99,-260.41 595.38,-254.95"/>
</g>
<!-- ID0000017&#45;&gt;ID0000018 -->
<g id="edge13" class="edge">
<title>ID0000017&#45;&gt;ID0000018</title>
<path fill="none" stroke="#000000" d="M626.41,-300.12C577.54,-290.8 467.56,-269.8 375,-252 368.53,-250.76 361.8,-249.46 355.06,-248.16"/>
<polygon fill="#000000" stroke="#000000" points="355.7,-244.72 345.22,-246.26 354.38,-251.59 355.7,-244.72"/>
</g>
<!-- ID0000020 -->
<g id="node29" class="node">
<title>ID0000020</title>
<ellipse fill="#1b9e77" stroke="#000000" cx="1018" cy="-234" rx="78.79" ry="18"/>
<text text-anchor="middle" x="1018" y="-230.3" font-family="Times,serif" font-size="14.00">tokenize&#45;validation</text>
</g>
<!-- ID0000017&#45;&gt;ID0000020 -->
<g id="edge15" class="edge">
<title>ID0000017&#45;&gt;ID0000020</title>
<path fill="none" stroke="#000000" d="M677.68,-300.13C726.73,-290.81 837.11,-269.83 930,-252 936.47,-250.76 943.2,-249.46 949.94,-248.17"/>
<polygon fill="#000000" stroke="#000000" points="950.62,-251.6 959.78,-246.27 949.3,-244.72 950.62,-251.6"/>
</g>
<!-- ID0000021 -->
<g id="node30" class="node">
<title>ID0000021</title>
<ellipse fill="#1b9e77" stroke="#000000" cx="740" cy="-234" rx="78.79" ry="18"/>
<text text-anchor="middle" x="740" y="-230.3" font-family="Times,serif" font-size="14.00">tokenize&#45;validation</text>
</g>
<!-- ID0000017&#45;&gt;ID0000021 -->
<g id="edge16" class="edge">
<title>ID0000017&#45;&gt;ID0000021</title>
<path fill="none" stroke="#000000" d="M668.97,-291.5C680.99,-281.94 697.41,-268.88 711.44,-257.72"/>
<polygon fill="#000000" stroke="#000000" points="713.72,-260.38 719.37,-251.41 709.36,-254.9 713.72,-260.38"/>
</g>
<!-- ID0000016 -->
<g id="node8" class="node">
<title>ID0000016</title>
<ellipse fill="#66a61e" stroke="#000000" cx="266" cy="-90" rx="38.99" ry="18"/>
<text text-anchor="middle" x="266" y="-86.3" font-family="Times,serif" font-size="14.00">binarize</text>
</g>
<!-- ID0000032 -->
<g id="node13" class="node">
<title>ID0000032</title>
<ellipse fill="#8dd3c7" stroke="#000000" cx="383" cy="-18" rx="38.19" ry="18"/>
<text text-anchor="middle" x="383" y="-14.3" font-family="Times,serif" font-size="14.00">training</text>
</g>
<!-- ID0000016&#45;&gt;ID0000032 -->
<g id="edge17" class="edge">
<title>ID0000016&#45;&gt;ID0000032</title>
<path fill="none" stroke="#000000" d="M288.84,-75.34C306.71,-64.64 331.78,-49.65 351.55,-37.81"/>
<polygon fill="#000000" stroke="#000000" points="353.44,-40.77 360.22,-32.63 349.84,-34.76 353.44,-40.77"/>
</g>
<!-- ID0000015 -->
<g id="node9" class="node">
<title>ID0000015</title>
<ellipse fill="#66a61e" stroke="#000000" cx="170" cy="-90" rx="38.99" ry="18"/>
<text text-anchor="middle" x="170" y="-86.3" font-family="Times,serif" font-size="14.00">binarize</text>
</g>
<!-- ID0000015&#45;&gt;ID0000032 -->
<g id="edge18" class="edge">
<title>ID0000015&#45;&gt;ID0000032</title>
<path fill="none" stroke="#000000" d="M199.91,-78.25C205.89,-76.15 212.14,-73.98 218,-72 260.11,-57.78 308.56,-42.33 342.01,-31.79"/>
<polygon fill="#000000" stroke="#000000" points="343.4,-35.03 351.89,-28.69 341.3,-28.35 343.4,-35.03"/>
</g>
<!-- ID0000014&#45;&gt;ID0000016 -->
<g id="edge20" class="edge">
<title>ID0000014&#45;&gt;ID0000016</title>
<path fill="none" stroke="#000000" d="M258.47,-143.7C259.57,-135.98 260.9,-126.71 262.13,-118.11"/>
<polygon fill="#000000" stroke="#000000" points="265.61,-118.5 263.56,-108.1 258.68,-117.51 265.61,-118.5"/>
</g>
<!-- ID0000014&#45;&gt;ID0000015 -->
<g id="edge19" class="edge">
<title>ID0000014&#45;&gt;ID0000015</title>
<path fill="none" stroke="#000000" d="M236.49,-145.12C224.7,-135.52 209.51,-123.16 196.63,-112.67"/>
<polygon fill="#000000" stroke="#000000" points="198.52,-109.7 188.55,-106.1 194.1,-115.13 198.52,-109.7"/>
</g>
<!-- ID0000026 -->
<g id="node23" class="node">
<title>ID0000026</title>
<ellipse fill="#fdb462" stroke="#000000" cx="383" cy="-90" rx="59.59" ry="18"/>
<text text-anchor="middle" x="383" y="-86.3" font-family="Times,serif" font-size="14.00">binarize&#45;valid</text>
</g>
<!-- ID0000014&#45;&gt;ID0000026 -->
<g id="edge21" class="edge">
<title>ID0000014&#45;&gt;ID0000026</title>
<path fill="none" stroke="#000000" d="M282.62,-146.33C301.17,-136.1 326.13,-122.34 346.53,-111.1"/>
<polygon fill="#000000" stroke="#000000" points="348.47,-114.03 355.53,-106.14 345.09,-107.9 348.47,-114.03"/>
</g>
<!-- ID0000027 -->
<g id="node24" class="node">
<title>ID0000027</title>
<ellipse fill="#b3de69" stroke="#000000" cx="515" cy="-90" rx="53.89" ry="18"/>
<text text-anchor="middle" x="515" y="-86.3" font-family="Times,serif" font-size="14.00">binarize&#45;test</text>
</g>
<!-- ID0000014&#45;&gt;ID0000027 -->
<g id="edge22" class="edge">
<title>ID0000014&#45;&gt;ID0000027</title>
<path fill="none" stroke="#000000" d="M296.47,-150.06C341.86,-137.8 415.53,-117.88 464.61,-104.62"/>
<polygon fill="#000000" stroke="#000000" points="465.65,-107.96 474.39,-101.98 463.82,-101.21 465.65,-107.96"/>
</g>
<!-- ID0000028 -->
<g id="node31" class="node">
<title>ID0000028</title>
<ellipse fill="#fdb462" stroke="#000000" cx="773" cy="-90" rx="59.59" ry="18"/>
<text text-anchor="middle" x="773" y="-86.3" font-family="Times,serif" font-size="14.00">binarize&#45;valid</text>
</g>
<!-- ID0000014&#45;&gt;ID0000028 -->
<g id="edge23" class="edge">
<title>ID0000014&#45;&gt;ID0000028</title>
<path fill="none" stroke="#000000" d="M294.75,-149.43C302.71,-147.37 311.08,-145.43 319,-144 488.13,-113.5 534.54,-136.63 704,-108 709.32,-107.1 714.84,-106.01 720.33,-104.83"/>
<polygon fill="#000000" stroke="#000000" points="721.16,-108.23 730.14,-102.6 719.62,-101.4 721.16,-108.23"/>
</g>
<!-- ID0000029 -->
<g id="node32" class="node">
<title>ID0000029</title>
<ellipse fill="#b3de69" stroke="#000000" cx="641" cy="-90" rx="53.89" ry="18"/>
<text text-anchor="middle" x="641" y="-86.3" font-family="Times,serif" font-size="14.00">binarize&#45;test</text>
</g>
<!-- ID0000014&#45;&gt;ID0000029 -->
<g id="edge24" class="edge">
<title>ID0000014&#45;&gt;ID0000029</title>
<path fill="none" stroke="#000000" d="M295.48,-149.54C303.23,-147.51 311.34,-145.56 319,-144 432.88,-120.82 464.12,-131.18 578,-108 582.43,-107.1 587.01,-106.07 591.58,-104.96"/>
<polygon fill="#000000" stroke="#000000" points="592.68,-108.3 601.52,-102.46 590.97,-101.51 592.68,-108.3"/>
</g>
<!-- ID0000031 -->
<g id="node11" class="node">
<title>ID0000031</title>
<ellipse fill="#a6761d" stroke="#000000" cx="103" cy="-162" rx="36.29" ry="18"/>
<text text-anchor="middle" x="103" y="-158.3" font-family="Times,serif" font-size="14.00">fasttext</text>
</g>
<!-- ID0000031&#45;&gt;ID0000032 -->
<g id="edge25" class="edge">
<title>ID0000031&#45;&gt;ID0000032</title>
<path fill="none" stroke="#000000" d="M101.53,-144.01C100.8,-123.94 102.91,-90.9 122,-72 151.51,-42.78 268.12,-28.47 335.07,-22.53"/>
<polygon fill="#000000" stroke="#000000" points="335.7,-25.99 345.36,-21.65 335.1,-19.02 335.7,-25.99"/>
</g>
<!-- ID0000030&#45;&gt;ID0000031 -->
<g id="edge26" class="edge">
<title>ID0000030&#45;&gt;ID0000031</title>
<path fill="none" stroke="#000000" d="M103,-215.7C103,-207.98 103,-198.71 103,-190.11"/>
<polygon fill="#000000" stroke="#000000" points="106.5,-190.1 103,-180.1 99.5,-190.1 106.5,-190.1"/>
</g>
<!-- ID0000008 -->
<g id="node14" class="node">
<title>ID0000008</title>
<ellipse fill="#bebada" stroke="#000000" cx="92" cy="-450" rx="40.09" ry="18"/>
<text text-anchor="middle" x="92" y="-446.3" font-family="Times,serif" font-size="14.00">tokenize</text>
</g>
<!-- ID0000009 -->
<g id="node15" class="node">
<title>ID0000009</title>
<ellipse fill="#fb8072" stroke="#000000" cx="141" cy="-378" rx="40.89" ry="18"/>
<text text-anchor="middle" x="141" y="-374.3" font-family="Times,serif" font-size="14.00">learnbpe</text>
</g>
<!-- ID0000008&#45;&gt;ID0000009 -->
<g id="edge27" class="edge">
<title>ID0000008&#45;&gt;ID0000009</title>
<path fill="none" stroke="#000000" d="M103.61,-432.41C109.59,-423.87 117.01,-413.28 123.65,-403.79"/>
<polygon fill="#000000" stroke="#000000" points="126.6,-405.67 129.47,-395.47 120.87,-401.66 126.6,-405.67"/>
</g>
<!-- ID0000009&#45;&gt;ID0000012 -->
<g id="edge29" class="edge">
<title>ID0000009&#45;&gt;ID0000012</title>
<path fill="none" stroke="#000000" d="M153.06,-360.76C159.47,-352.14 167.47,-341.36 174.63,-331.73"/>
<polygon fill="#000000" stroke="#000000" points="177.49,-333.75 180.64,-323.63 171.87,-329.57 177.49,-333.75"/>
</g>
<!-- ID0000009&#45;&gt;ID0000010 -->
<g id="edge28" class="edge">
<title>ID0000009&#45;&gt;ID0000010</title>
<path fill="none" stroke="#000000" d="M128.94,-360.76C122.53,-352.14 114.53,-341.36 107.37,-331.73"/>
<polygon fill="#000000" stroke="#000000" points="110.13,-329.57 101.36,-323.63 104.51,-333.75 110.13,-329.57"/>
</g>
<!-- ID0000004 -->
<g id="node16" class="node">
<title>ID0000004</title>
<ellipse fill="#bebada" stroke="#000000" cx="191" cy="-450" rx="40.09" ry="18"/>
<text text-anchor="middle" x="191" y="-446.3" font-family="Times,serif" font-size="14.00">tokenize</text>
</g>
<!-- ID0000004&#45;&gt;ID0000009 -->
<g id="edge30" class="edge">
<title>ID0000004&#45;&gt;ID0000009</title>
<path fill="none" stroke="#000000" d="M179.15,-432.41C173.05,-423.87 165.48,-413.28 158.71,-403.79"/>
<polygon fill="#000000" stroke="#000000" points="161.42,-401.57 152.76,-395.47 155.73,-405.64 161.42,-401.57"/>
</g>
<!-- ID0000005 -->
<g id="node17" class="node">
<title>ID0000005</title>
<ellipse fill="#e7298a" stroke="#000000" cx="27" cy="-594" rx="27" ry="18"/>
<text text-anchor="middle" x="27" y="-590.3" font-family="Times,serif" font-size="14.00">gzip</text>
</g>
<!-- ID0000007 -->
<g id="node19" class="node">
<title>ID0000007</title>
<ellipse fill="#80b1d3" stroke="#000000" cx="92" cy="-522" rx="33.6" ry="18"/>
<text text-anchor="middle" x="92" y="-518.3" font-family="Times,serif" font-size="14.00">concat</text>
</g>
<!-- ID0000005&#45;&gt;ID0000007 -->
<g id="edge31" class="edge">
<title>ID0000005&#45;&gt;ID0000007</title>
<path fill="none" stroke="#000000" d="M40.78,-578.15C49.34,-568.94 60.51,-556.91 70.24,-546.43"/>
<polygon fill="#000000" stroke="#000000" points="73.09,-548.51 77.33,-538.8 67.96,-543.74 73.09,-548.51"/>
</g>
<!-- ID0000006 -->
<g id="node18" class="node">
<title>ID0000006</title>
<ellipse fill="#e7298a" stroke="#000000" cx="99" cy="-594" rx="27" ry="18"/>
<text text-anchor="middle" x="99" y="-590.3" font-family="Times,serif" font-size="14.00">gzip</text>
</g>
<!-- ID0000006&#45;&gt;ID0000007 -->
<g id="edge32" class="edge">
<title>ID0000006&#45;&gt;ID0000007</title>
<path fill="none" stroke="#000000" d="M97.27,-575.7C96.5,-567.98 95.57,-558.71 94.71,-550.11"/>
<polygon fill="#000000" stroke="#000000" points="98.19,-549.71 93.71,-540.1 91.22,-550.4 98.19,-549.71"/>
</g>
<!-- ID0000007&#45;&gt;ID0000008 -->
<g id="edge33" class="edge">
<title>ID0000007&#45;&gt;ID0000008</title>
<path fill="none" stroke="#000000" d="M92,-503.7C92,-495.98 92,-486.71 92,-478.11"/>
<polygon fill="#000000" stroke="#000000" points="95.5,-478.1 92,-468.1 88.5,-478.1 95.5,-478.1"/>
</g>
<!-- ID0000001 -->
<g id="node20" class="node">
<title>ID0000001</title>
<ellipse fill="#e7298a" stroke="#000000" cx="184" cy="-594" rx="27" ry="18"/>
<text text-anchor="middle" x="184" y="-590.3" font-family="Times,serif" font-size="14.00">gzip</text>
</g>
<!-- ID0000003 -->
<g id="node22" class="node">
<title>ID0000003</title>
<ellipse fill="#80b1d3" stroke="#000000" cx="191" cy="-522" rx="33.6" ry="18"/>
<text text-anchor="middle" x="191" y="-518.3" font-family="Times,serif" font-size="14.00">concat</text>
</g>
<!-- ID0000001&#45;&gt;ID0000003 -->
<g id="edge34" class="edge">
<title>ID0000001&#45;&gt;ID0000003</title>
<path fill="none" stroke="#000000" d="M185.73,-575.7C186.5,-567.98 187.43,-558.71 188.29,-550.11"/>
<polygon fill="#000000" stroke="#000000" points="191.78,-550.4 189.29,-540.1 184.81,-549.71 191.78,-550.4"/>
</g>
<!-- ID0000002 -->
<g id="node21" class="node">
<title>ID0000002</title>
<ellipse fill="#e7298a" stroke="#000000" cx="256" cy="-594" rx="27" ry="18"/>
<text text-anchor="middle" x="256" y="-590.3" font-family="Times,serif" font-size="14.00">gzip</text>
</g>
<!-- ID0000002&#45;&gt;ID0000003 -->
<g id="edge35" class="edge">
<title>ID0000002&#45;&gt;ID0000003</title>
<path fill="none" stroke="#000000" d="M242.22,-578.15C233.66,-568.94 222.49,-556.91 212.76,-546.43"/>
<polygon fill="#000000" stroke="#000000" points="215.04,-543.74 205.67,-538.8 209.91,-548.51 215.04,-543.74"/>
</g>
<!-- ID0000003&#45;&gt;ID0000004 -->
<g id="edge36" class="edge">
<title>ID0000003&#45;&gt;ID0000004</title>
<path fill="none" stroke="#000000" d="M191,-503.7C191,-495.98 191,-486.71 191,-478.11"/>
<polygon fill="#000000" stroke="#000000" points="194.5,-478.1 191,-468.1 187.5,-478.1 194.5,-478.1"/>
</g>
<!-- ID0000026&#45;&gt;ID0000032 -->
<g id="edge37" class="edge">
<title>ID0000026&#45;&gt;ID0000032</title>
<path fill="none" stroke="#000000" d="M383,-71.7C383,-63.98 383,-54.71 383,-46.11"/>
<polygon fill="#000000" stroke="#000000" points="386.5,-46.1 383,-36.1 379.5,-46.1 386.5,-46.1"/>
</g>
<!-- ID0000027&#45;&gt;ID0000032 -->
<g id="edge38" class="edge">
<title>ID0000027&#45;&gt;ID0000032</title>
<path fill="none" stroke="#000000" d="M487.33,-74.33C466.69,-63.38 438.4,-48.38 416.48,-36.76"/>
<polygon fill="#000000" stroke="#000000" points="418,-33.6 407.52,-32 414.72,-39.78 418,-33.6"/>
</g>
<!-- ID0000024&#45;&gt;ID0000028 -->
<g id="edge39" class="edge">
<title>ID0000024&#45;&gt;ID0000028</title>
<path fill="none" stroke="#000000" d="M855.21,-145.29C840.48,-135.56 821.37,-122.95 805.29,-112.32"/>
<polygon fill="#000000" stroke="#000000" points="806.98,-109.25 796.71,-106.66 803.13,-115.09 806.98,-109.25"/>
</g>
<!-- ID0000025&#45;&gt;ID0000029 -->
<g id="edge40" class="edge">
<title>ID0000025&#45;&gt;ID0000029</title>
<path fill="none" stroke="#000000" d="M716.76,-145.12C703.26,-135.47 685.85,-123.04 671.12,-112.52"/>
<polygon fill="#000000" stroke="#000000" points="672.98,-109.54 662.81,-106.58 668.92,-115.24 672.98,-109.54"/>
</g>
<!-- ID0000022&#45;&gt;ID0000026 -->
<g id="edge41" class="edge">
<title>ID0000022&#45;&gt;ID0000026</title>
<path fill="none" stroke="#000000" d="M389.78,-143.7C388.78,-135.98 387.59,-126.71 386.49,-118.11"/>
<polygon fill="#000000" stroke="#000000" points="389.95,-117.58 385.2,-108.1 383,-118.47 389.95,-117.58"/>
</g>
<!-- ID0000023&#45;&gt;ID0000027 -->
<g id="edge42" class="edge">
<title>ID0000023&#45;&gt;ID0000027</title>
<path fill="none" stroke="#000000" d="M527.8,-143.7C525.9,-135.9 523.62,-126.51 521.52,-117.83"/>
<polygon fill="#000000" stroke="#000000" points="524.92,-117 519.15,-108.1 518.11,-118.65 524.92,-117"/>
</g>
<!-- ID0000020&#45;&gt;ID0000024 -->
<g id="edge43" class="edge">
<title>ID0000020&#45;&gt;ID0000024</title>
<path fill="none" stroke="#000000" d="M986.81,-217.29C966.35,-206.99 939.47,-193.45 917.66,-182.47"/>
<polygon fill="#000000" stroke="#000000" points="919.17,-179.31 908.66,-177.94 916.02,-185.56 919.17,-179.31"/>
</g>
<!-- ID0000021&#45;&gt;ID0000025 -->
<g id="edge44" class="edge">
<title>ID0000021&#45;&gt;ID0000025</title>
<path fill="none" stroke="#000000" d="M739.75,-215.7C739.64,-207.98 739.51,-198.71 739.39,-190.11"/>
<polygon fill="#000000" stroke="#000000" points="742.89,-190.05 739.24,-180.1 735.89,-190.15 742.89,-190.05"/>
</g>
<!-- ID0000028&#45;&gt;ID0000032 -->
<g id="edge45" class="edge">
<title>ID0000028&#45;&gt;ID0000032</title>
<path fill="none" stroke="#000000" d="M729.31,-77.69C720.94,-75.68 712.22,-73.69 704,-72 606.78,-52.03 491.79,-34.5 429.22,-25.48"/>
<polygon fill="#000000" stroke="#000000" points="429.67,-22 419.27,-24.05 428.68,-28.93 429.67,-22"/>
</g>
<!-- ID0000029&#45;&gt;ID0000032 -->
<g id="edge46" class="edge">
<title>ID0000029&#45;&gt;ID0000032</title>
<path fill="none" stroke="#000000" d="M600.4,-77.99C552.71,-65.05 473.95,-43.68 425.46,-30.52"/>
<polygon fill="#000000" stroke="#000000" points="426.17,-27.09 415.6,-27.84 424.33,-33.84 426.17,-27.09"/>
</g>
</g>
</svg>
